<svg viewBox="0 0 283 12" fill="#b00e2f" xmlns="http://www.w3.org/2000/svg" preserveAspectRatio="none">
<path d="M267.108 7.26855C258.875 6.86699 251.448 6.93222 243.654 6.92324C228.443 6.90299 213.236 5.3462 198.024 5.40019C163.958 5.54192 129.365 4.64542 95.1772 6.12009C85.0802 6.54866 74.9947 6.91198 64.9988 7.52839C64.0398 7.5835 63.0903 7.64087 62.1267 7.70611C52.7487 8.29329 40.5055 7.95021 31.1841 8.56663C22.9764 9.38553 16.6165 10.4125 8.75904 10.1324C6.6743 9.93893 4.45322 9.58911 3.20279 8.88156C0.473995 7.36191 -0.795155 5.97173 0.525738 4.81298C0.955851 4.43166 1.69855 4.03908 2.49766 3.68587C4.05833 3.02898 5.93151 2.51491 6.94921 2.4699C24.5156 1.57451 44.4442 1.4058 60.3186 1.24607C68.1545 1.17071 76.2448 1.06834 86.1372 0.873738C108.989 0.594777 145.025 0.414788 167.901 0.145977C187.889 -0.0958635 207.93 1.23709 227.725 2.22807C235.251 2.60265 239.989 2.60265 246.737 2.70499C247.863 2.71174 249.137 2.73199 250.444 2.74998C257.112 2.85234 269.122 2.34843 273 3.31805C276.883 4.29777 279.593 4.40014 282.984 6.2011C283.163 7.97724 281.797 8.79724 280.065 9.09539C276.025 9.80515 272.323 10.5982 269.18 10.8423C265.5 11.1212 262.531 11.1325 261.93 10.461C261.347 9.78718 261.676 9.36985 262.259 9.06165C263.274 8.55771 265.105 8.00653 266.743 7.6331L267.108 7.26855Z" fill="#b00e2f"/>
</svg>
